<svg id="Capa_1" enable-background="new 0 0 512 512" height="512" viewBox="0 0 512 512" width="512" xmlns="http://www.w3.org/2000/svg"><g><g><path d="m455.94 149.237c-25.68-25.68-65.27-28.86-94.4-9.55-6.583 4.362-7.536 13.683-1.936 19.283l86.598 86.59c5.592 5.592 14.919 4.644 19.28-1.91.003-.004.006-.008.008-.013 19.31-29.13 16.13-68.72-9.55-94.4z" fill="#47568c"/><path d="m445.33 265.907-10.61 10.61c-29.3 29.3-76.75 29.31-106.06 0s-29.32-76.76 0-106.07l10.61-10.61 63.11 42.96z" fill="#ffbfab"/></g><g><path d="m465.49 243.637c-2.74 4.12-5.92 8.03-9.55 11.66l-10.61 10.61-106.06-106.07 10.6-10.6c3.64-3.64 7.55-6.82 11.67-9.55z" fill="#6aa9ff"/></g><path d="m432.56 380.417-116.56 9.57c-25.63 0-47.5-14.21-60-24.53-12.5 10.32-34.37 24.53-60 24.53l-119.49-9.83 114.27-114.25-61.83-61.82c-17.59-17.58-17.59-46.06.01-63.64l127.04-127.05.23-.23c17.55-17.54 46.1-17.54 63.65 0 17.54 17.55 17.54 46.09 0 63.64l-63.88 63.87-31.59 31.59z" fill="#ffd5cc"/><path d="m319.88 76.808-63.88 63.869v-127.28l.23-.23c17.55-17.54 46.1-17.54 63.65 0 17.54 17.55 17.54 46.09 0 63.641z" fill="#ffbfab"/><path d="m432.56 380.417-116.56 9.57c-25.63 0-47.5-14.21-60-24.53v-161.6z" fill="#ffbfab"/><g><g><path d="m486.04 336.747c-30.95 32.9-68.65 33.48-98.86.23-5.93-6.62-16.34-6.63-22.33-.03-29.87 32.93-67.73 32.99-97.67.03-2.97-3.32-7.08-4.98-11.18-4.97-4.08.01-8.16 1.65-11.15 4.94-29.87 32.93-67.73 32.99-97.67.03-5.91-6.59-16.33-6.64-22.33-.03-29.16 32.14-66.81 33.82-98.86-.17-9.26-9.97-25.99-3.38-25.99 10.21v60c0 3.79 1.43 7.43 4.01 10.21 38.56 41.52 87.4 47.07 131.99 10.26 40.87 33.74 81.88 31.47 120 0 40.87 33.74 81.88 31.47 120 0 44.43 36.67 93.28 31.42 131.99-10.26 2.58-2.78 4.01-6.42 4.01-10.21v-60c0-13.47-16.61-20.19-25.96-10.24z" fill="#6aa9ff"/></g></g><path d="m512 346.987v60c0 3.79-1.43 7.43-4.01 10.21-38.71 41.68-87.56 46.93-131.99 10.26-38.12 31.47-79.13 33.74-120 0v-95.45c4.1-.01 8.21 1.65 11.18 4.97 29.94 32.96 67.8 32.9 97.67-.03 5.99-6.6 16.4-6.59 22.33.03 30.21 33.25 67.91 32.67 98.86-.23 9.35-9.95 25.96-3.23 25.96 10.24z" fill="#4895ff"/><g><path d="m486.04 396.747c-30.95 32.9-68.65 33.48-98.86.23-5.93-6.62-16.34-6.63-22.33-.03-29.87 32.93-67.73 32.99-97.67.03-2.97-3.32-7.08-4.98-11.18-4.97-4.08.01-8.16 1.65-11.15 4.94-29.87 32.93-67.73 32.99-97.67.03-5.81-6.47-16.21-6.78-22.33-.03-29.16 32.14-66.81 33.82-98.86-.17-9.26-9.97-25.99-3.38-25.99 10.21v90c0 8.28 6.72 15 15 15h482c8.28 0 15-6.72 15-15v-90c0-13.47-16.61-20.19-25.96-10.24z" fill="#80d4ff"/></g><path d="m512 406.987v90c0 8.28-6.72 15-15 15h-241v-119.98c4.1-.01 8.21 1.65 11.18 4.97 29.94 32.96 67.8 32.9 97.67-.03 5.99-6.6 16.4-6.59 22.33.03 30.21 33.25 67.91 32.67 98.86-.23 9.35-9.95 25.96-3.23 25.96 10.24z" fill="#6aa9ff"/></g></svg>